<?xml version="1.0" encoding="utf-8"?>
<!-- Generator: Adobe Illustrator 22.0.1, SVG Export Plug-In . SVG Version: 6.00 Build 0)  -->
<svg version="1.1" id="Lager_1" xmlns="http://www.w3.org/2000/svg" xmlns:xlink="http://www.w3.org/1999/xlink" x="0px" y="0px"
	 viewBox="0 0 16 16" style="enable-background:new 0 0 16 16;" xml:space="preserve">
<style type="text/css">
	.st0{fill:#828282;}
</style>
<path class="st0" d="M12.7,0H3.3C1.5,0,0,1.5,0,3.3v9.3C0,14.5,1.5,16,3.3,16h9.3c1.8,0,3.3-1.5,3.3-3.3V3.3C16,1.5,14.5,0,12.7,0z
	 M5.3,12.7h-2V5.3h2V12.7z M4.3,4.5C3.7,4.5,3.2,4,3.2,3.3s0.5-1.2,1.2-1.2s1.2,0.5,1.2,1.2S5,4.5,4.3,4.5z M13.3,12.7h-2V8.9
	c0-2.2-2.7-2.1-2.7,0v3.7h-2V5.3h2v1.2c0.9-1.7,4.7-1.9,4.7,1.7V12.7z"/>
</svg>
