<svg xmlns="http://www.w3.org/2000/svg" viewBox="0 0 187.53 334"><defs><style>.cls-1{fill:#42210b;}.cls-11,.cls-2{fill:#ccc;}.cls-12,.cls-13,.cls-14,.cls-15,.cls-16,.cls-2,.cls-3,.cls-7,.cls-8{stroke:#000;stroke-miterlimit:10;}.cls-12,.cls-20,.cls-3,.cls-8{fill:none;}.cls-4,.cls-7{fill:#f0beb4;}.cls-5{opacity:0.15;}.cls-6{opacity:0.05;}.cls-8{stroke-width:0.25px;}.cls-9{fill:#c78e9f;}.cls-10{fill:#713746;}.cls-12{stroke-width:0.66px;}.cls-13{fill:#b3b3b3;}.cls-14{fill:aqua;}.cls-15{fill:#22b573;}.cls-16{fill:#534741;}.cls-17{fill:#f2f2f2;opacity:0.75;}.cls-18{fill:#754c24;}.cls-19{fill:#c69c6d;}</style></defs><title>Wilmer_profile</title><g id="Bakgrund"><polygon class="cls-1" points="143.5 56.46 57.5 57.46 61.5 2.46 126.5 23.46 143.5 56.46"/></g><g id="Glas_holder"><polygon class="cls-2" points="39.5 128.46 0.5 122.46 0.5 118.46 39.5 124.46 39.5 128.46"/><line class="cls-3" x1="1" y1="120.46" x2="3" y2="120.46"/></g><g id="Hals"><path class="cls-4" d="M864,604s8,59,11,63,21,26,28,25c7.21-1,22,10,78-75,0,0,10-12,7-22s-4-5-5-26,0-19,0-19" transform="translate(-822 -358.04)"/><path class="cls-5" d="M982,551l-14,26s-6,15-20,23-73,13-73,13,0,2,10,4,47,1,54-2c6.63-2.84,29-4,41-46,0,0,3-18,2-18" transform="translate(-822 -358.04)"/></g><g id="Ansikte"><path class="cls-4" d="M878,615c11-1,33-1,42-3s32-8,38-18c2.3-3.84,6.67-9,11.23-15,7.32-9.69,15.77-33,15.77-34s2-4,2.5-4.5,8,5,12-13c2.23-10,5.39-15.71,7.06-22.59,1.33-5.46,3.44-18.91,2.44-19.91s-18.5-10.5-18.5,20.5c0,0-4-4-6-21,0,0-6-81-38-78,0,0-47-9-74-3s-28,15-28,15-10,22-8,30-10,17-10.5,25.5,5,75,11,86C843.24,571.45,867,616,878,615Z" transform="translate(-822 -358.04)"/><path d="M878,614.94c7.13-.62,14.27-.82,21.4-1.19,3.57-.18,7.14-.37,10.69-.66a73.67,73.67,0,0,0,10.59-1.44,133.15,133.15,0,0,0,20.42-6.29,60.31,60.31,0,0,0,9.54-4.78l2.19-1.51,2-1.69c.6-.64,1.26-1.24,1.81-1.93s1.05-1.39,1.5-2.18c3.92-6,8.84-11.28,12.75-17.22a133.58,133.58,0,0,0,9.44-19.16c1.35-3.3,2.67-6.63,3.82-10,.15-.42.28-.84.41-1.26.07-.22.11-.41.15-.59a2.81,2.81,0,0,1,.17-.72,13.57,13.57,0,0,1,1.27-2.42c.25-.38.5-.75.77-1.12l.21-.27a.62.62,0,0,1,.4-.27,2.08,2.08,0,0,1,.76.13,6.59,6.59,0,0,0,2.56.26,6.4,6.4,0,0,0,4.22-2.71,18.69,18.69,0,0,0,2.47-4.65c1.29-3.31,1.81-6.87,2.82-10.31s2.17-6.83,3.39-10.18a65.58,65.58,0,0,0,3-10.23q1.07-5.24,1.74-10.55a49.83,49.83,0,0,0,.44-5.3,6.5,6.5,0,0,0-.09-1.27.47.47,0,0,0-.27-.37,5.55,5.55,0,0,0-.54-.34,13.89,13.89,0,0,0-2.42-1,11.18,11.18,0,0,0-5.16-.44,8.31,8.31,0,0,0-4.52,2.36,13.27,13.27,0,0,0-2.83,4.37,24.71,24.71,0,0,0-1.49,5.08c-.2.86-.28,1.75-.43,2.62s-.19,1.77-.27,2.65-.11,1.78-.14,2.66l0,1.34,0,1.08,0,.5c0,.06,0,.21,0,.2l-.18-.19a7.73,7.73,0,0,1-.71-.88c-.14-.21-.18-.26-.24-.37l-.18-.29c-.23-.39-.45-.79-.64-1.2-.4-.81-.74-1.65-1.06-2.49a49.32,49.32,0,0,1-1.55-5.16A86.28,86.28,0,0,1,984.26,485c-.33-3.56-.7-7.1-1.17-10.64-.93-7.08-2.14-14.12-3.69-21.08a150.09,150.09,0,0,0-6-20.51c-2.55-6.62-5.68-13.16-10.37-18.51a23.35,23.35,0,0,0-8.42-6.26,16.37,16.37,0,0,0-5.11-1.21,19.24,19.24,0,0,0-2.63,0l-.36,0c-.21,0-.25,0-.38-.06l-.66-.12-1.31-.24c-7-1.22-14.11-2.19-21.21-3-14.17-1.5-28.52-2.42-42.7-.83-.88.11-1.77.19-2.65.32l-2.62.47c-.88.17-1.76.31-2.63.49l-2.59.64a90.33,90.33,0,0,0-10.21,3.1,44.14,44.14,0,0,0-9.48,4.78,18.86,18.86,0,0,0-3.86,3.54,7.58,7.58,0,0,0-1.28,2.21c0,.1-.06.19-.09.29l0,.18-.08.2-.27.61-.53,1.23c-1.39,3.28-2.7,6.6-3.87,10a78.67,78.67,0,0,0-2.9,10.26c-.13.88-.35,1.74-.42,2.62l-.13,1.32c0,.44,0,.87,0,1.31v.66c0,.21.06.43.08.64.07.43.11.83.2,1.3a8,8,0,0,1,.11,2.76,15.76,15.76,0,0,1-1.75,5.16,53.75,53.75,0,0,1-2.77,4.62c-1.94,3-4,5.91-5.32,9.2a12.48,12.48,0,0,0-.86,5.14c0,1.78.07,3.56.16,5.34.35,7.13.91,14.25,1.54,21.36,1.3,14.22,2.8,28.44,5.25,42.51.63,3.51,1.32,7,2.27,10.44a24.47,24.47,0,0,0,1.87,5l2.56,4.7c3.43,6.27,6.93,12.49,10.61,18.61s7.52,12.15,11.75,17.89a80.36,80.36,0,0,0,6.83,8.23,29.73,29.73,0,0,0,4,3.52,8.13,8.13,0,0,0,4.88,1.81l0,.12a8.2,8.2,0,0,1-5-1.78,29,29,0,0,1-4.07-3.51,79.5,79.5,0,0,1-6.91-8.2c-4.28-5.73-8.14-11.76-11.85-17.87s-7.22-12.33-10.66-18.6L837,560.4a25.7,25.7,0,0,1-1.91-5c-1-3.46-1.66-7-2.29-10.49-2.45-14.09-4-28.31-5.31-42.54-.64-7.12-1.22-14.24-1.59-21.38-.09-1.79-.16-3.57-.17-5.37a13.05,13.05,0,0,1,.89-5.35c1.32-3.4,3.43-6.34,5.36-9.33,1-1.5,1.92-3,2.73-4.57a15.07,15.07,0,0,0,1.68-4.94,7.57,7.57,0,0,0-.1-2.56c-.09-.41-.14-.9-.21-1.35,0-.23-.08-.46-.09-.69v-.68c0-.45,0-.91,0-1.36l.14-1.35c.06-.91.28-1.78.42-2.67a80.28,80.28,0,0,1,2.92-10.35c1.18-3.38,2.49-6.71,3.88-10l.54-1.23.27-.62c.07-.1.09-.38.18-.6a8.25,8.25,0,0,1,1.39-2.41,20.18,20.18,0,0,1,4-3.67,45.45,45.45,0,0,1,9.63-4.83,90.7,90.7,0,0,1,10.28-3.11l2.61-.63c.88-.19,1.77-.33,2.65-.49l2.64-.48c.89-.13,1.78-.21,2.67-.31,14.27-1.58,28.64-.64,42.83.86q10.66,1.17,21.24,3l1.32.23.66.12.28.05.32,0a20.42,20.42,0,0,1,2.71,0,17.18,17.18,0,0,1,5.28,1.25,23.86,23.86,0,0,1,8.63,6.4c4.77,5.44,7.92,12,10.49,18.68a150.74,150.74,0,0,1,6,20.59c1.56,7,2.77,14,3.7,21.13.48,3.54.85,7.11,1.17,10.66a88.88,88.88,0,0,0,1.85,10.51,47.35,47.35,0,0,0,1.54,5.09,23.7,23.7,0,0,0,1,2.44c.19.4.4.79.62,1.16l.17.29c.05.08.14.21.12.19l0,.05s0,0,0,0v-.26l0-1.34c0-.9.09-1.8.14-2.69s.17-1.79.27-2.68.23-1.78.44-2.66a25.73,25.73,0,0,1,1.53-5.19,13.75,13.75,0,0,1,3-4.55,8.83,8.83,0,0,1,4.82-2.5,11.71,11.71,0,0,1,5.42.45,14.24,14.24,0,0,1,2.51,1.07l.6.36a1.33,1.33,0,0,1,.31.29,1.15,1.15,0,0,1,.16.4,6.77,6.77,0,0,1,.11,1.4,50.49,50.49,0,0,1-.45,5.37q-.69,5.32-1.75,10.59a65.47,65.47,0,0,1-3.07,10.29c-1.23,3.36-2.44,6.71-3.39,10.14s-1.52,7-2.84,10.35a18.77,18.77,0,0,1-2.54,4.78,6.89,6.89,0,0,1-4.56,2.9,7,7,0,0,1-2.74-.28,3.24,3.24,0,0,0-.54-.12s-.19.2-.31.36c-.26.35-.51.72-.74,1.09a13.19,13.19,0,0,0-1.23,2.31,2.57,2.57,0,0,0-.14.58,4.35,4.35,0,0,1-.17.71c-.13.43-.27.86-.42,1.28-1.16,3.39-2.47,6.71-3.83,10a132.66,132.66,0,0,1-9.49,19.24c-4,6-8.86,11.25-12.75,17.21-.43.76-1,1.49-1.54,2.23s-1.24,1.31-1.85,2l-2.09,1.71L950.87,601a62,62,0,0,1-9.61,4.8A134.77,134.77,0,0,1,920.75,612a72.09,72.09,0,0,1-10.64,1.4c-3.56.27-7.13.45-10.7.61-7.14.33-14.29.47-21.4,1Z" transform="translate(-822 -358.04)"/><path class="cls-1" d="M941.5,533.5a47.55,47.55,0,0,1,5.23,6.26,42.76,42.76,0,0,1,4.11,7.09,22.61,22.61,0,0,1,2.13,8,12.73,12.73,0,0,1-.45,4.12,9.4,9.4,0,0,1-2,3.56,11.21,11.21,0,0,0,1.71-7.62,26.36,26.36,0,0,0-2.28-7.62,59,59,0,0,0-3.84-7.07c-.7-1.15-1.45-2.27-2.23-3.38S942.31,534.59,941.5,533.5Z" transform="translate(-822 -358.04)"/><path class="cls-1" d="M861.63,542.16c-.65,1.35-1.21,2.74-1.82,4.1s-1.19,2.73-1.74,4.11-1.08,2.75-1.5,4.16a14.31,14.31,0,0,0-.46,2.14,3.6,3.6,0,0,0,.26,2.14,3.4,3.4,0,0,1-.75-2.16,10.41,10.41,0,0,1,.19-2.3,23.38,23.38,0,0,1,1.33-4.36,38.29,38.29,0,0,1,2-4.08A23.64,23.64,0,0,1,861.63,542.16Z" transform="translate(-822 -358.04)"/><ellipse class="cls-6" cx="118" cy="122.46" rx="29.5" ry="29"/><path class="cls-6" d="M996,481l-21-68s-35-14-43-10l-2,3s3,35,10,41a16.05,16.05,0,0,1,3.16,4.67A29.19,29.19,0,0,1,969.5,480.5a28.72,28.72,0,0,1-8.57,20.44l.07.06c3,2,3,61-1,72s-16,24-17,26,4.62,3.5,4.62,3.5S977,583,987,541c.41-1.74,7.31-.47,8-2,13-29,14-54,14-54Z" transform="translate(-822 -358.04)"/><path class="cls-7" d="M1000.5,493.5s-12,30-9,37" transform="translate(-822 -358.04)"/><path class="cls-7" d="M1002.5,506.5s-5.58,10.88-9.79,10.44" transform="translate(-822 -358.04)"/><path class="cls-6" d="M845.76,409.13S850.34,466,840.3,472s-9.16-6.56-9.16-6.56" transform="translate(-822 -358.04)"/></g><g id="Näsa"><path class="cls-8" d="M901,526c.5-1.5-2-9,6-8s2,4,1,7" transform="translate(-822 -358.04)"/><path d="M907,518c-4.22-.53-5.52,1.31-5.88,3.39a52,52,0,0,0,9.77-.74C911.44,519.45,910.87,518.48,907,518Z" transform="translate(-822 -358.04)"/><path d="M884,519c-3.32-.66-3.55,1.32-3.33,2.72a37.19,37.19,0,0,0,5.85-.24C886.06,520,886.1,519.42,884,519Z" transform="translate(-822 -358.04)"/><path class="cls-8" d="M883,526c-2-2-2-3-2-3s-2-5,3-4c3.54.71,1,1.85,5,7" transform="translate(-822 -358.04)"/><path class="cls-8" d="M919,524c1.17-1.14,4.6-5.2,4-7-1-3-8.27-12.54-10-16-5-10-6.22-9.78-8-24-.34-2.69.5-5.5,0-7" transform="translate(-822 -358.04)"/><path class="cls-8" d="M891,471c-1,4-.7,5.09-2,9-2,6-12.5,27.5-14,30-.36.59-4,7-3,13,.26,1.53,1.22,3.69,3,4" transform="translate(-822 -358.04)"/></g><g id="Mun"><path class="cls-9" d="M894,562c11.54.61,27.79-5.46,38-10,6.6-2.94,9-5,11-5s-3-1-9,0-15,0-21-1a21.7,21.7,0,0,0-9.5.5S890,549,887,548s-12,5-18,4-5,1-5,2S875,561,894,562Z" transform="translate(-822 -358.04)"/><path class="cls-10" d="M865.5,553.5a71.62,71.62,0,0,0,8.9.46c3,0,5.94,0,8.91-.14,5.94-.24,11.86-.63,17.79-1.12s11.87-.81,17.77-1.48c3-.32,5.89-.73,8.83-1.21s5.86-1,8.8-1.51c-2.86.84-5.76,1.55-8.67,2.23S922,551.9,919,552.37c-5.91.94-11.88,1.35-17.8,1.83s-11.92.8-17.89.77S871.34,554.78,865.5,553.5Z" transform="translate(-822 -358.04)"/></g><g id="Glasses"><ellipse class="cls-6" cx="33" cy="122.46" rx="29.5" ry="29"/><path class="cls-11" d="M909.5,477.5a61.8,61.8,0,0,0-27,0c-.22-1-.44-1.95-.65-2.93a65,65,0,0,1,28.3,0C909.94,475.55,909.72,476.52,909.5,477.5Z" transform="translate(-822 -358.04)"/><path class="cls-12" d="M909.5,477.5a61.8,61.8,0,0,0-27,0c-.22-1-.44-1.95-.65-2.93a65,65,0,0,1,28.3,0C909.94,475.55,909.72,476.52,909.5,477.5Z" transform="translate(-822 -358.04)"/><polygon class="cls-2" points="183.5 126.46 144.5 120.46 144.5 116.46 183.5 122.46 183.5 126.46"/><path class="cls-13" d="M881.65,470.51H866.5c-5,0-2,3-2,3h-15c-2,0,1-2,1-2h-17c-5,0-2,3-2,3l-6.84,0c-.1,1-.16,2-.16,3,0,.34,0,.67,0,1l58-1A29.28,29.28,0,0,0,881.65,470.51Z" transform="translate(-822 -358.04)"/><path class="cls-14" d="M833.5,471.5h17s-3,2-1,2h15s-3-3,2-3h15.15a29,29,0,0,0-57,3.95l6.84,0S828.5,471.5,833.5,471.5Z" transform="translate(-822 -358.04)"/><path class="cls-15" d="M824.53,478.5a28.7,28.7,0,0,0,3.41,12.7l5.56-2.7s-2-7,1-6c0,0,3-3,3,6,0,0,4-7,9,3,0,0,5-3,3-4s3-6,7,0c0,0,2-6,7-1,0,0,3-11,14-5,0,0,0,4.87,3.87,4a29.1,29.1,0,0,0,1.13-8Z" transform="translate(-822 -358.04)"/><path class="cls-16" d="M877.5,481.5c-11-6-14,5-14,5-5-5-7,1-7,1-4-6-9-1-7,0s-3,4-3,4c-5-10-9-3-9-3,0-9-3-6-3-6-3-1-1,6-1,6l-5.56,2.7a29,29,0,0,0,53.43-5.68C877.51,486.37,877.5,481.5,877.5,481.5Z" transform="translate(-822 -358.04)"/><path class="cls-13" d="M966.65,470.51H951.5c-5,0-2,3-2,3h-15c-2,0,1-2,1-2h-17c-5,0-2,3-2,3l-6.84,0c-.1,1-.16,2-.16,3,0,.34,0,.67,0,1l58-1A29.28,29.28,0,0,0,966.65,470.51Z" transform="translate(-822 -358.04)"/><path class="cls-14" d="M918.5,471.5h17s-3,2-1,2h15s-3-3,2-3h15.15a29,29,0,0,0-57,3.95l6.84,0S913.5,471.5,918.5,471.5Z" transform="translate(-822 -358.04)"/><path class="cls-17" d="M918.92,456.12A29,29,0,0,0,914,462h15S924.2,457.64,918.92,456.12Z" transform="translate(-822 -358.04)"/><path class="cls-3" d="M918.5,471.5h17s-3,2-1,2h15s-3-3,2-3h15.15a29,29,0,0,0-57,3.95l6.84,0S913.5,471.5,918.5,471.5Z" transform="translate(-822 -358.04)"/><path class="cls-15" d="M909.53,478.5a28.7,28.7,0,0,0,3.41,12.7l5.56-2.7s-2-7,1-6c0,0,3-3,3,6,0,0,4-7,9,3,0,0,5-3,3-4s3-6,7,0c0,0,2-6,7-1,0,0,3-11,14-5,0,0,0,4.87,3.87,4a29.1,29.1,0,0,0,1.13-8Z" transform="translate(-822 -358.04)"/><path class="cls-16" d="M962.5,481.5c-11-6-14,5-14,5-5-5-7,1-7,1-4-6-9-1-7,0s-3,4-3,4c-5-10-9-3-9-3,0-9-3-6-3-6-3-1-1,6-1,6l-5.56,2.7a29,29,0,0,0,53.43-5.68C962.51,486.37,962.5,481.5,962.5,481.5Z" transform="translate(-822 -358.04)"/><path class="cls-17" d="M859,462s-11-10-18-5-1,5-1,5" transform="translate(-822 -358.04)"/></g><g id="Hår"><path class="cls-18" d="M840.5,416.5s-10-13-3-16,8,1,14-8c0,0,8-31,31-34s85.49,6.92,120.57,76.15a8.26,8.26,0,0,0,.85,1.32c1.72,2.17,7.64,12.23-1.92,40,0,0-8.5,25.5-11,31s-12.5-40.5-12.5-40.5l-2-19s-3-8-5-5-6,7-6,9-3,3-3-11,0-38-24-54c0,0,18,38,18,40,0,1.41-5,10-7,11s-11-49-23-52c0,0-1,2,4,10s5,9,5,9-3,3-5,1-11-35-7-18,1,17,1,17l-8-1s-1-25,3-24-8-14-11,15c0,0-1,14-5,7s-6.94-28.59,7.58-29h.42" transform="translate(-822 -358.04)"/><path class="cls-18" d="M911.5,372.5s-19.58-1.35-18.8,15.91c.17,3.75.8,12.09,3.8,14.09s-6.16-.36-15,1c-13,2-24,1-34,13l-3,4c-.54.54-.53,19.7-6,34-4.68,12.25-15,20-15,20l1-38s6-20,16-20" transform="translate(-822 -358.04)"/><path class="cls-1" d="M839,426s-13,20-9,32" transform="translate(-822 -358.04)"/><path class="cls-1" d="M963,394s20,26,19,38" transform="translate(-822 -358.04)"/><path class="cls-1" d="M930.47,370.39s27,20.94,28.13,28.47" transform="translate(-822 -358.04)"/><path class="cls-1" d="M964,403s10,30,9,36" transform="translate(-822 -358.04)"/><path class="cls-1" d="M961.06,403.78s8.1,34.5,6.88,38.44" transform="translate(-822 -358.04)"/><path class="cls-1" d="M871,376s-7,3-7,7-5,12-3,18l-1,4" transform="translate(-822 -358.04)"/><path class="cls-1" d="M936.83,390.66s15.53,30.44,13.34,37.73" transform="translate(-822 -358.04)"/><path class="cls-1" d="M870,401s4-28,9-29" transform="translate(-822 -358.04)"/><path class="cls-1" d="M877,399s6-32,9-31" transform="translate(-822 -358.04)"/><path class="cls-19" d="M991,442s7,19,7,25" transform="translate(-822 -358.04)"/><path class="cls-19" d="M989,454c-1,0,8,21,6,26" transform="translate(-822 -358.04)"/><path class="cls-19" d="M983,460s10,22,9,30" transform="translate(-822 -358.04)"/><path class="cls-19" d="M864,403s5-28,8-28" transform="translate(-822 -358.04)"/><path class="cls-19" d="M873,400s4-25,6-26" transform="translate(-822 -358.04)"/><path class="cls-19" d="M918,401s2-22,3-19" transform="translate(-822 -358.04)"/><path class="cls-19" d="M940,374s19,13,20,18" transform="translate(-822 -358.04)"/><path class="cls-19" d="M963,399s12,24,14,31" transform="translate(-822 -358.04)"/><path class="cls-19" d="M878,365s20-4,25-1" transform="translate(-822 -358.04)"/><path class="cls-19" d="M908,364s14,1,16,5" transform="translate(-822 -358.04)"/><path class="cls-19" d="M845,412s-9-4-7-6" transform="translate(-822 -358.04)"/><path class="cls-19" d="M851,408s-10-3-8-4" transform="translate(-822 -358.04)"/><path class="cls-19" d="M838,429s-7,19-7,23" transform="translate(-822 -358.04)"/><path class="cls-1" d="M977,426s10,30,9,36" transform="translate(-822 -358.04)"/><path class="cls-1" d="M984,425s10,30,9,36" transform="translate(-822 -358.04)"/><path class="cls-19" d="M981.93,416.55s14.58,17.82,14.14,22.9" transform="translate(-822 -358.04)"/><path class="cls-1" d="M884,400s4-28,9-29" transform="translate(-822 -358.04)"/><path class="cls-19" d="M879,397s4-25,6-26" transform="translate(-822 -358.04)"/><path class="cls-19" d="M885,399s5-28,8-28" transform="translate(-822 -358.04)"/><path class="cls-19" d="M904.57,397.77s1.39-30,5.79-24.5" transform="translate(-822 -358.04)"/></g><g id="Scar"><line class="cls-20" x1="51.5" y1="52.46" x2="51.5" y2="68.46"/><line class="cls-20" x1="51.5" y1="67.46" x2="46.5" y2="63.46"/><line class="cls-20" x1="46.5" y1="64.46" x2="51.5" y2="79.46"/></g></svg>